<svg 
  xmlns="http://www.w3.org/2000/svg" 
  viewBox="0 0 32 32"
  width="32"
  height="32"
>
  <defs>
    <linearGradient id="faviconGradient2023" gradientUnits="userSpaceOnUse" x1="0" y1="0" x2="32" y2="32">
      <stop offset="0%" style="stop-color:#2196F3" />
      <stop offset="50%" style="stop-color:#7E57C2" />
      <stop offset="100%" style="stop-color:#9C27B0" />
    </linearGradient>
  </defs>
  
  <!-- Background to ensure no transparency -->
  <rect x="0" y="0" width="32" height="32" fill="white"/>
  
  <!-- Gradient background -->
  <rect 
    x="0" 
    y="0" 
    width="32" 
    height="32" 
    rx="8"
    fill="url(#faviconGradient2023)"
  />
  
  <!-- Bold 'B' -->
  <path 
    d="M9 7
       h9 
       q5 0 5 5
       v1.5
       q0 2.5 -2.5 3.5
       q3.5 1 3.5 4
       v1.5
       q0 5 -5 5
       h-10
       v-20.5
       Z" 
    fill="white"
  />
  
  <!-- Inner curves with explicit gradient -->
  <path 
    d="M13 11
       h4
       q1.75 0 1.75 1.75
       v0.5
       q0 1.75 -1.75 1.75
       h-4
       Z" 
    fill="url(#faviconGradient2023)"
    opacity="0.85"
  />
  
  <path 
    d="M13 17.5
       h4.5
       q1.75 0 1.75 1.75
       v0.5
       q0 1.75 -1.75 1.75
       h-4.5
       Z" 
    fill="url(#faviconGradient2023)"
    opacity="0.85"
  />
</svg>
